<svg xmlns="http://www.w3.org/2000/svg" xmlns:xlink="http://www.w3.org/1999/xlink" viewBox="0,0,256,256" width="200px" height="200px" fill-rule="nonzero"><g transform=""><g fill="#487bd7" fill-rule="nonzero" stroke="none" stroke-width="1" stroke-linecap="butt" stroke-linejoin="miter" stroke-miterlimit="10" stroke-dasharray="" stroke-dashoffset="0" font-family="none" font-weight="none" font-size="none" text-anchor="none" style="mix-blend-mode: normal"><g transform="translate(2.61665,19.20124) scale(2.56,2.56)"><path d="M85.58984,13c-0.14545,-0.00344 -0.29084,0.00901 -0.43359,0.03711c-13.07039,2.52439 -24.01529,6.60473 -33.09375,12.05859c-5.231,-5.94649 -14.68627,-8.17826 -22.98437,-9.24219c-4.48197,-0.57465 -8.68675,-0.75597 -11.77148,-0.79492c-3.08473,-0.03896 -5.05078,0.06445 -5.05078,0.06445c-0.53613,0.02856 -1.03827,0.27145 -1.39347,0.67404c-0.3552,0.40259 -0.53365,0.93108 -0.4952,1.46659l0.42969,6.00586l-4.63281,-0.77148c-0.06578,-0.01119 -0.13252,-0.01577 -0.19922,-0.01367c-0.54615,0.01916 -0.9758,0.47316 -0.96484,1.01953c0.45281,21.87019 2.15794,42.14956 5.31641,60.5957c0.04937,0.28758 0.22187,0.53925 0.47227,0.68904c0.2504,0.14979 0.55373,0.18276 0.83047,0.09025c7.69823,-2.55809 18.70544,-3.74891 33.79297,-3.14453c0.08698,0.50037 0.22978,1.10209 0.5918,1.72656c0.79533,1.37193 2.59763,2.66144 5.63867,2.5293c3.01067,-0.13083 4.91398,-1.33928 5.97266,-2.55469c0.54271,-0.62306 0.8706,-1.24494 1.06836,-1.71875c11.40856,-0.86767 23.18949,-1.2155 32.01367,0.02344c0.5429,0.07685 1.04646,-0.29776 1.12891,-0.83984c3.01037,-19.57796 4.11673,-38.82385 2.12695,-57.52148c-0.02907,-0.27425 -0.17011,-0.52432 -0.38976,-0.6911c-0.21965,-0.16677 -0.49842,-0.23544 -0.7704,-0.18976l-4.98047,0.82813c-0.06929,-2.78525 -0.15711,-5.58561 -0.2793,-8.41211c-0.04483,-1.04927 -0.89353,-1.88517 -1.94336,-1.91406zM83.56445,17.51367c0.70631,18.71459 0.24831,36.52711 -0.99023,53.74414c-1.56542,-0.09412 -3.09387,-0.14232 -4.59961,-0.16406l0.96875,-1.45508c0.21303,-0.30982 0.23428,-0.71295 0.05502,-1.04346c-0.17927,-0.33051 -0.52876,-0.53254 -0.90463,-0.52295c-0.33031,0.00845 -0.63514,0.1795 -0.81445,0.45703l-1.71289,2.57031c-1.33154,0.0147 -2.64329,0.05652 -3.93359,0.12695l1.98242,-2.69336c0.22713,-0.30007 0.26657,-0.70225 0.10207,-1.04073c-0.1645,-0.33848 -0.50509,-0.55596 -0.88137,-0.56279c-0.32924,-0.00615 -0.64041,0.15016 -0.83203,0.41797l-2.98828,4.0625c-1.11701,0.09483 -2.22399,0.20593 -3.31445,0.3418l1.63867,-3.28125c0.16492,-0.3182 0.14697,-0.70032 -0.04706,-1.00165c-0.19403,-0.30133 -0.53447,-0.4758 -0.89239,-0.45733c-0.36508,0.01873 -0.69085,0.23517 -0.84961,0.56445l-2.11914,4.24219c-0.04008,0.08101 -0.06898,0.16708 -0.08594,0.25586c-1.34645,0.20677 -2.67861,0.43953 -3.99219,0.70703l1.625,-3.25c0.16492,-0.3182 0.14697,-0.70032 -0.04706,-1.00165c-0.19403,-0.30133 -0.53447,-0.4758 -0.89239,-0.45733c-0.36508,0.01873 -0.69085,0.23517 -0.84961,0.56445l-2.35742,4.71094c-1.06738,0.25156 -2.12629,0.52443 -3.17773,0.81445c-0.01733,-13.41443 -0.12794,-27.22292 -1.05664,-44.37109c-0.00401,-0.091 -0.02044,-0.18103 -0.04883,-0.26758c0.14113,-0.07389 0.27292,-0.16438 0.39258,-0.26953c8.29201,-5.19404 18.44306,-9.14727 30.62305,-11.74023zM16.71875,19.05859c0.98195,-0.00256 2.1842,0.0213 3.51758,0.07227l3.98242,6.9707c0.17723,0.31054 0.50666,0.50293 0.86421,0.5047c0.35754,0.00177 0.68887,-0.18735 0.86917,-0.49611c0.1803,-0.30876 0.18216,-0.69026 0.0049,-1.00078l-3.33984,-5.84375c1.01147,0.06477 2.01864,0.1293 3.16211,0.24219l2.69336,4.49023c0.18148,0.31133 0.51641,0.50095 0.87674,0.49637c0.36033,-0.00458 0.69033,-0.20266 0.86383,-0.5185c0.1735,-0.31584 0.16368,-0.7006 -0.02573,-1.00717l-1.9082,-3.17969c0.09881,0.01236 0.1895,0.02044 0.28906,0.0332c8.54982,1.0962 17.84315,3.896 21.38281,9.03711c0.17873,0.26911 0.41998,0.49093 0.70313,0.64648c-0.04384,0.12665 -0.06177,0.26082 -0.05273,0.39453c0.93018,17.17554 1.03434,30.98437 1.05078,44.44531c-2.20707,-0.32665 -4.3839,-0.5947 -6.53125,-0.80469l1.41406,-1.69531c0.25758,-0.29922 0.31502,-0.72199 0.1466,-1.07908c-0.16842,-0.3571 -0.53117,-0.58169 -0.9259,-0.57326c-0.29498,0.00586 -0.57231,0.14167 -0.75781,0.37109l-2.30078,2.76172c-1.04736,-0.08161 -2.09423,-0.15997 -3.12695,-0.21289l1.25977,-2.52148c0.16492,-0.3182 0.14697,-0.70032 -0.04706,-1.00165c-0.19403,-0.30133 -0.53447,-0.4758 -0.89239,-0.45733c-0.36508,0.01873 -0.69085,0.23517 -0.84961,0.56445l-1.66992,3.3418c-1.31604,-0.04156 -2.62049,-0.06112 -3.91211,-0.05469l2.03125,-3.38672c0.18825,-0.30475 0.19914,-0.68691 0.02855,-1.00189c-0.1706,-0.31498 -0.49662,-0.51466 -0.85472,-0.5235c-0.36492,-0.0086 -0.70553,0.1823 -0.88867,0.49805l-2.66406,4.43945c-1.42406,0.03988 -2.8331,0.10873 -4.22656,0.20898l1.27344,-3.81836c0.10654,-0.30479 0.05938,-0.64227 -0.12664,-0.90618c-0.18601,-0.26391 -0.48799,-0.42178 -0.81086,-0.4239c-0.43855,-0.00341 -0.82815,0.27929 -0.96094,0.69727l-1.55078,4.65039c-2.12005,0.2034 -4.21484,0.45641 -6.26172,0.80469l-0.01758,-0.24609l5.24414,-5.24609c0.29576,-0.28749 0.38469,-0.72707 0.22393,-1.10691c-0.16075,-0.37985 -0.53821,-0.62204 -0.9505,-0.60988c-0.2598,0.00774 -0.50638,0.11632 -0.6875,0.30273l-4.01953,4.01953l-0.23437,-3.29883l2.48633,-2.48828c0.29576,-0.28749 0.38469,-0.72707 0.22393,-1.10691c-0.16075,-0.37985 -0.53821,-0.62204 -0.9505,-0.60988c-0.2598,0.00774 -0.50638,0.11632 -0.6875,0.30273l-1.26172,1.26172l-3.30859,-46.30273c0.57039,-0.01617 1.3131,-0.03282 2.21094,-0.03516zM79.34961,21.37109c-0.42614,-0.05269 -0.86184,0.14847 -1.08984,0.54297c-0.304,0.526 -0.12366,1.20086 0.40234,1.50586c0.527,0.304 1.20186,0.1227 1.50586,-0.4043c0.304,-0.527 0.1217,-1.19991 -0.4043,-1.50391c-0.13175,-0.076 -0.27202,-0.12306 -0.41406,-0.14062zM72.48633,24.55273c-0.42614,-0.05292 -0.86184,0.14772 -1.08984,0.54297c-0.304,0.526 -0.1217,1.19991 0.4043,1.50391c0.527,0.304 1.19991,0.12366 1.50391,-0.40234c0.304,-0.527 0.12366,-1.20186 -0.40234,-1.50586c-0.13175,-0.076 -0.27397,-0.12103 -0.41602,-0.13867zM92.0332,24.65234c1.78553,17.85047 0.76116,36.25162 -2.06641,55.01367c-9.15306,-1.14998 -20.80457,-0.79274 -32.08203,0.08594c-0.44487,0.03458 -0.81301,0.35969 -0.90234,0.79688c0,0 -0.13867,0.72888 -0.875,1.57422c-0.73633,0.84534 -2.01545,1.75897 -4.55078,1.86914c-2.50495,0.10885 -3.35309,-0.72389 -3.82227,-1.5332c-0.46917,-0.80931 -0.4375,-1.65625 -0.4375,-1.65625c0.0143,-0.26659 -0.07858,-0.52784 -0.25797,-0.72557c-0.17939,-0.19773 -0.43039,-0.31553 -0.69711,-0.32716c-15.03757,-0.66695 -26.08259,0.44492 -34.21289,2.93555c-2.96573,-17.6968 -4.60652,-37.10716 -5.08594,-58.01367l3.90039,0.65039l3.66602,51.32813c0.04108,0.57263 0.32623,1.10001 0.7829,1.44793c0.45667,0.34792 1.04082,0.48284 1.60381,0.37043c10.54894,-2.10609 22.37962,-2.03141 35.35156,0.01367c0.02662,0.00379 0.05332,0.00705 0.08008,0.00977c0.32732,0.04276 0.66013,0.00384 0.96875,-0.11328c9.38523,-2.75208 19.07523,-4.0142 30.91602,-3.05859c0.53079,0.04304 1.05683,-0.12735 1.46157,-0.47344c0.40474,-0.34608 0.65477,-0.83928 0.69468,-1.37031c1.1656,-15.48535 1.72243,-31.45474 1.38086,-48.12695zM80.32813,27.73438c-0.42614,-0.05269 -0.86184,0.14652 -1.08984,0.54102c-0.304,0.527 -0.12466,1.20186 0.40234,1.50586c0.527,0.304 1.20186,0.12466 1.50586,-0.40234c0.304,-0.527 0.1217,-1.20186 -0.4043,-1.50586c-0.13175,-0.076 -0.27202,-0.12111 -0.41406,-0.13867zM20.80859,30.9668c-0.53459,0.01774 -0.96059,0.45297 -0.96687,0.98782c-0.00627,0.53485 0.4094,0.97996 0.94343,1.01023c10.53664,0.65206 17.72539,3.13094 22.87695,6.22266c0.30657,0.1894 0.69133,0.19923 1.00717,0.02573c0.31584,-0.1735 0.51392,-0.5035 0.5185,-0.86383c0.00458,-0.36033 -0.18504,-0.69526 -0.49637,-0.87674c-5.45244,-3.27228 -12.98984,-5.83596 -23.7832,-6.50391c-0.03315,-0.00231 -0.06639,-0.00296 -0.09961,-0.00195zM75.9668,30.9668c-8.01124,0.18124 -13.18463,2.05164 -17.42383,4.36523c-0.32685,0.16404 -0.5381,0.49339 -0.55089,0.85887c-0.01279,0.36548 0.17493,0.7088 0.48951,0.89528c0.31458,0.18648 0.70587,0.18639 1.02037,-0.00024c4.0428,-2.20641 8.78501,-3.94438 16.50977,-4.11914c0.55228,-0.0124 0.98994,-0.47018 0.97754,-1.02246c-0.0124,-0.55228 -0.47018,-0.98994 -1.02246,-0.97754zM74.93359,39.83203c-0.05698,0.00036 -0.11383,0.00559 -0.16992,0.01563c-6.51139,1.09265 -12.17021,2.81077 -17.19727,4.98828c-0.32807,0.14193 -0.55547,0.44813 -0.59652,0.80322c-0.04105,0.35509 0.1105,0.70509 0.39753,0.91813c0.28703,0.21303 0.66593,0.25672 0.99391,0.11459c4.87694,-2.11249 10.37377,-3.78421 16.73438,-4.85156c0.51783,-0.08055 0.88566,-0.54717 0.84308,-1.06949c-0.04259,-0.52232 -0.48115,-0.92319 -1.00519,-0.91879zM23.27734,39.83984c-0.80117,0.01668 -1.60492,0.05786 -2.4082,0.12305c-0.36597,0.01589 -0.69397,0.2306 -0.85496,0.55965c-0.16098,0.32905 -0.12919,0.71978 0.08288,1.01848c0.21207,0.29869 0.57046,0.45755 0.93419,0.41406c6.09377,-0.49451 12.33361,0.57063 16.33594,2.57227c0.49404,0.24702 1.09478,0.04677 1.3418,-0.44727c0.24702,-0.49404 0.04677,-1.09478 -0.44727,-1.3418c-3.35976,-1.68028 -7.84843,-2.69481 -12.59375,-2.87695c-0.79089,-0.03036 -1.58946,-0.03817 -2.39062,-0.02148zM80.21484,47.93164c-0.09007,0.00229 -0.17942,0.01675 -0.26562,0.04297c-5.11329,1.50249 -8.54779,1.95457 -11.68555,2.47266c-3.13776,0.51809 -5.9985,1.11584 -9.67578,2.88867c-0.32213,0.1552 -0.53697,0.47048 -0.56357,0.82706c-0.0266,0.35658 0.1391,0.70025 0.43464,0.90151c0.29554,0.20127 0.67602,0.22954 0.99807,0.07416c3.47471,-1.67517 6.04307,-2.20859 9.13281,-2.71875c3.08974,-0.51016 6.68111,-0.98488 11.92383,-2.52539c0.48691,-0.136 0.79576,-0.61397 0.71967,-1.11375c-0.07609,-0.49979 -0.51318,-0.8642 -1.0185,-0.84914zM24.07227,50.24219c-0.94776,-0.01332 -1.86905,-0.005 -2.75,0.02148c-0.35736,0.01068 -0.68187,0.21124 -0.85122,0.52611c-0.16935,0.31487 -0.15781,0.69618 0.03028,1.00023c0.18809,0.30405 0.52413,0.48462 0.88149,0.47366c6.78837,-0.2041 16.28674,0.93263 21.21875,3.89258c0.30657,0.1894 0.69133,0.19923 1.00717,0.02573c0.31584,-0.1735 0.51392,-0.5035 0.5185,-0.86383c0.00458,-0.36033 -0.18504,-0.69526 -0.49637,-0.87674c-4.96299,-2.97854 -12.9243,-4.10599 -19.55859,-4.19922zM77.03125,57.47852c-0.02348,0.00048 -0.04693,0.00178 -0.07031,0.00391c-5.26337,0.47421 -11.3535,1.92608 -18.26172,4.29297c-0.52262,0.17906 -0.80113,0.74789 -0.62207,1.27051c0.17906,0.52262 0.74789,0.80113 1.27051,0.62207c6.80379,-2.33111 12.75633,-3.73957 17.79297,-4.19336c0.53727,-0.04745 0.94012,-0.51239 0.91061,-1.05094c-0.02951,-0.53855 -0.48075,-0.95669 -1.01999,-0.94515zM24.60938,58.68945c-1.01923,-0.01753 -2.02214,-0.01744 -2.99805,0.00195c-0.55228,0.01079 -0.99126,0.46725 -0.98047,1.01953c0.01079,0.55228 0.46725,0.99126 1.01953,0.98047c7.59077,-0.15085 17.12979,0.94899 22.1543,2.95898c0.33181,0.13298 0.70935,0.07882 0.9904,-0.14206c0.28105,-0.22089 0.42289,-0.57494 0.3721,-0.92878c-0.0508,-0.35383 -0.28652,-0.65368 -0.61836,-0.78658c-4.88206,-1.95301 -12.80486,-2.9808 -19.93945,-3.10352z"></path></g></g><g fill="#487bd7" fill-rule="nonzero" stroke="none" stroke-width="1" stroke-linecap="butt" stroke-linejoin="miter" stroke-miterlimit="10" stroke-dasharray="" stroke-dashoffset="0" font-family="none" font-weight="none" font-size="none" text-anchor="none" style="mix-blend-mode: normal"><g><path d="M82.415,40.985v0c0,-0.75333 -0.37,-1.34667 -1.11,-1.78c-0.74667,-0.43333 -1.94,-0.82 -3.58,-1.16v0c-5.47333,-1.14667 -8.21,-3.47 -8.21,-6.97v0c0,-2.04 0.84667,-3.74333 2.54,-5.11c1.69333,-1.36667 3.90667,-2.05 6.64,-2.05v0c2.92,0 5.25333,0.68667 7,2.06c1.75333,1.38 2.63,3.16667 2.63,5.36v0h-6.14c0,-0.88 -0.28333,-1.60667 -0.85,-2.18c-0.56667,-0.57333 -1.45333,-0.86 -2.66,-0.86v0c-1.03333,0 -1.83333,0.23333 -2.4,0.7c-0.56667,0.46667 -0.85,1.06333 -0.85,1.79v0c0,0.68 0.32333,1.22667 0.97,1.64c0.64,0.42 1.72667,0.78333 3.26,1.09c1.52667,0.3 2.81667,0.64333 3.87,1.03v0c3.24,1.18667 4.86,3.24667 4.86,6.18v0c0,2.1 -0.9,3.79667 -2.7,5.09c-1.79333,1.3 -4.11667,1.95 -6.97,1.95v0c-1.92667,0 -3.63667,-0.34667 -5.13,-1.04c-1.49333,-0.68667 -2.66333,-1.62667 -3.51,-2.82c-0.85333,-1.2 -1.28,-2.49333 -1.28,-3.88v0h5.82c0.06,1.09333 0.46333,1.93 1.21,2.51c0.75333,0.58 1.76,0.87 3.02,0.87v0c1.18,0 2.07,-0.22333 2.67,-0.67c0.6,-0.44667 0.9,-1.03 0.9,-1.75zM111.865,47.335h-6.2c-0.28667,-0.55333 -0.49333,-1.24 -0.62,-2.06v0c-1.48667,1.66 -3.42,2.49 -5.8,2.49v0c-2.25333,0 -4.12,-0.65333 -5.6,-1.96c-1.48,-1.3 -2.22,-2.94333 -2.22,-4.93v0c0,-2.43333 0.90333,-4.30333 2.71,-5.61c1.80667,-1.3 4.41667,-1.96 7.83,-1.98v0h2.83v-1.31c0,-1.06667 -0.27333,-1.91667 -0.82,-2.55c-0.54667,-0.64 -1.40667,-0.96 -2.58,-0.96v0c-1.03333,0 -1.84667,0.24667 -2.44,0.74c-0.58667,0.5 -0.88,1.18 -0.88,2.04v0h-6.14c0,-1.32667 0.41,-2.55667 1.23,-3.69c0.82667,-1.13333 1.99,-2.02333 3.49,-2.67c1.5,-0.64667 3.18667,-0.97 5.06,-0.97v0c2.83333,0 5.08,0.71333 6.74,2.14c1.66667,1.42 2.5,3.42 2.5,6v0v9.97c0.01333,2.18 0.31667,3.83 0.91,4.95v0zM100.585,43.065v0c0.90667,0 1.74333,-0.20333 2.51,-0.61c0.76667,-0.4 1.33333,-0.94 1.7,-1.62v0v-3.95h-2.3c-3.07333,0 -4.71,1.06 -4.91,3.18v0l-0.02,0.36c0,0.76667 0.27,1.4 0.81,1.9c0.54,0.49333 1.27667,0.74 2.21,0.74zM115.545,24.345h5.78l0.19,2.65c1.64667,-2.05333 3.85,-3.08 6.61,-3.08v0c2.44,0 4.25333,0.71667 5.44,2.15c1.19333,1.43333 1.80333,3.57333 1.83,6.42v0v14.85h-6.14v-14.7c0,-1.30667 -0.28333,-2.25333 -0.85,-2.84c-0.56667,-0.58667 -1.51,-0.88 -2.83,-0.88v0c-1.72667,0 -3.02333,0.73667 -3.89,2.21v0v16.21h-6.14zM140.045,24.345h5.76l0.19,2.57c1.63333,-2 3.83667,-3 6.61,-3v0c2.96,0 4.99333,1.17 6.1,3.51v0c1.61333,-2.34 3.91667,-3.51 6.91,-3.51v0c2.49333,0 4.34667,0.72667 5.56,2.18c1.22,1.45333 1.83,3.64 1.83,6.56v0v14.68h-6.16v-14.66c0,-1.30667 -0.25667,-2.26 -0.77,-2.86c-0.50667,-0.6 -1.40667,-0.9 -2.7,-0.9v0c-1.84,0 -3.11333,0.87667 -3.82,2.63v0l0.02,15.79h-6.14v-14.64c0,-1.33333 -0.26333,-2.29667 -0.79,-2.89c-0.52,-0.59333 -1.41,-0.89 -2.67,-0.89v0c-1.74667,0 -3.01,0.72 -3.79,2.16v0v16.26h-6.14zM191.665,47.335l-0.17,-2.34c-1.52,1.84667 -3.61667,2.77 -6.29,2.77v0c-2.46667,0 -4.34667,-0.71 -5.64,-2.13c-1.3,-1.41333 -1.96333,-3.49 -1.99,-6.23v0v-15.06h6.14v14.85c0,2.39333 1.09,3.59 3.27,3.59v0c2.08667,0 3.52,-0.72333 4.3,-2.17v0v-16.27h6.16v22.99z"></path></g></g></g></svg>